<svg width="19" height="19" class="icon icon-instagram" viewBox="0 0 19 19" fill="none" xmlns="http://www.w3.org/2000/svg">
<path d="M10.2116 0.112435C10.8684 0.109915 11.5251 0.116516 12.1817 0.132235L12.3563 0.138535C12.5579 0.145734 12.7567 0.154734 12.997 0.165534C13.9546 0.210532 14.608 0.361727 15.1813 0.58402C15.7752 0.812612 16.2756 1.1222 16.776 1.62258C17.2335 2.07221 17.5876 2.6161 17.8137 3.21643C18.036 3.78971 18.1872 4.44399 18.2322 5.40156C18.243 5.64095 18.252 5.84074 18.2592 6.04233L18.2646 6.21693C18.2806 6.87318 18.2875 7.52962 18.2853 8.18606L18.2862 8.85744V10.0364C18.2884 10.6931 18.2815 11.3499 18.2655 12.0064L18.2601 12.181C18.2529 12.3826 18.2439 12.5815 18.2331 12.8218C18.1881 13.7794 18.0351 14.4327 17.8137 15.006C17.5884 15.607 17.2342 16.1513 16.776 16.6008C16.326 17.0582 15.7818 17.4123 15.1813 17.6384C14.608 17.8607 13.9546 18.0119 12.997 18.0569C12.7567 18.0677 12.5579 18.0767 12.3563 18.0839L12.1817 18.0893C11.5251 18.1053 10.8684 18.1122 10.2116 18.11L9.54026 18.1109H8.3622C7.70546 18.1131 7.04872 18.1062 6.39217 18.0902L6.21757 18.0848C6.00393 18.0771 5.79033 18.0681 5.57679 18.0578C4.61923 18.0128 3.96585 17.8598 3.39167 17.6384C2.7911 17.4129 2.24712 17.0587 1.79782 16.6008C1.33978 16.151 0.985352 15.6068 0.759258 15.006C0.536966 14.4327 0.385771 13.7794 0.340772 12.8218C0.330749 12.6083 0.321749 12.3947 0.313773 12.181L0.309273 12.0064C0.292681 11.3499 0.285181 10.6931 0.286774 10.0364V8.18606C0.284262 7.52962 0.290863 6.87318 0.306574 6.21693L0.312873 6.04233C0.320073 5.84074 0.329073 5.64095 0.339872 5.40156C0.384871 4.44309 0.536066 3.79061 0.758358 3.21643C0.984586 2.61581 1.33971 2.07207 1.79872 1.62348C2.24771 1.16518 2.79135 0.810427 3.39167 0.58402C3.96585 0.361727 4.61833 0.210532 5.57679 0.165534L6.21757 0.138535L6.39217 0.134035C7.04841 0.117451 7.70485 0.10995 8.3613 0.111536L10.2116 0.112435ZM9.28647 4.61228C8.69024 4.60385 8.09829 4.714 7.54501 4.93633C6.99172 5.15866 6.48815 5.48874 6.06354 5.90739C5.63893 6.32603 5.30176 6.82489 5.07163 7.37497C4.8415 7.92506 4.72299 8.5154 4.72299 9.11168C4.72299 9.70796 4.8415 10.2983 5.07163 10.8484C5.30176 11.3985 5.63893 11.8973 6.06354 12.316C6.48815 12.7346 6.99172 13.0647 7.54501 13.287C8.09829 13.5094 8.69024 13.6195 9.28647 13.6111C10.4799 13.6111 11.6245 13.137 12.4683 12.2931C13.3122 11.4492 13.7863 10.3047 13.7863 9.11123C13.7863 7.9178 13.3122 6.77324 12.4683 5.92936C11.6245 5.08547 10.4799 4.61228 9.28647 4.61228ZM9.28647 6.41222C9.64511 6.40561 10.0015 6.47054 10.3347 6.6032C10.668 6.73587 10.9715 6.93361 11.2275 7.18488C11.4835 7.43616 11.6868 7.73592 11.8257 8.06667C11.9645 8.39742 12.0361 8.75252 12.0361 9.11122C12.0362 9.46993 11.9648 9.82505 11.826 10.1558C11.6873 10.4866 11.4841 10.7865 11.2281 11.0378C10.9722 11.2892 10.6688 11.487 10.3356 11.6198C10.0024 11.7526 9.64602 11.8176 9.28737 11.8111C8.57131 11.8111 7.88458 11.5267 7.37824 11.0204C6.87191 10.514 6.58746 9.82729 6.58746 9.11123C6.58746 8.39517 6.87191 7.70844 7.37824 7.20211C7.88458 6.69577 8.57131 6.41132 9.28737 6.41132L9.28647 6.41222ZM14.0113 3.26233C13.721 3.27395 13.4464 3.39746 13.2451 3.60699C13.0438 3.81652 12.9313 4.09582 12.9313 4.38639C12.9313 4.67696 13.0438 4.95626 13.2451 5.16579C13.4464 5.37532 13.721 5.49883 14.0113 5.51045C14.3097 5.51045 14.5958 5.39193 14.8068 5.18096C15.0177 4.96999 15.1363 4.68385 15.1363 4.38549C15.1363 4.08713 15.0177 3.80099 14.8068 3.59002C14.5958 3.37905 14.3097 3.26053 14.0113 3.26053V3.26233Z" fill="white"></path>
</svg>